<svg xmlns="http://www.w3.org/2000/svg" viewBox="0 0 64 64" fill="none">
  <ellipse cx="32" cy="36" rx="24" ry="20" fill="#F9D29D" stroke="#333" stroke-width="2"/>
  <ellipse cx="18" cy="18" rx="8" ry="14" fill="#F9D29D" stroke="#333" stroke-width="2"/>
  <ellipse cx="46" cy="18" rx="8" ry="14" fill="#F9D29D" stroke="#333" stroke-width="2"/>
  <ellipse cx="24" cy="38" rx="3" ry="4" fill="#fff" stroke="#333" stroke-width="1.5"/>
  <ellipse cx="40" cy="38" rx="3" ry="4" fill="#fff" stroke="#333" stroke-width="1.5"/>
  <ellipse cx="24" cy="39" rx="1" ry="1.5" fill="#333"/>
  <ellipse cx="40" cy="39" rx="1" ry="1.5" fill="#333"/>
  <ellipse cx="32" cy="48" rx="6" ry="3" fill="#fff" stroke="#333" stroke-width="1.5"/>
  <path d="M26 48 Q32 52 38 48" stroke="#333" stroke-width="1.5" fill="none"/>
  <path d="M32 44 Q32 46 34 46" stroke="#333" stroke-width="1.5" fill="none"/>
  <path d="M32 44 Q32 46 30 46" stroke="#333" stroke-width="1.5" fill="none"/>
  <polygon points="6,6 18,18 12,2" fill="#F9D29D" stroke="#333" stroke-width="1.5"/>
  <polygon points="58,6 46,18 52,2" fill="#F9D29D" stroke="#333" stroke-width="1.5"/>
</svg>
